<svg xmlns="http://www.w3.org/2000/svg" xmlns:xlink="http://www.w3.org/1999/xlink" width="1024" zoomAndPan="magnify" viewBox="0 0 768 767.999994" height="1024" preserveAspectRatio="xMidYMid meet" version="1.0"><defs><clipPath id="782bfda31f"><path d="M 656 416 L 753.757812 416 L 753.757812 479 L 656 479 Z M 656 416 " clip-rule="nonzero"/></clipPath></defs><path fill="#0f172a" d="M 419.746094 767.996094 C 400.289062 767.996094 363.253906 765.488281 341.664062 755.335938 C 328.597656 749.195312 321.953125 715.417969 317.128906 630.691406 C 316.785156 624.582031 318.757812 619.128906 322.957031 614.492188 C 333.703125 602.710938 358.144531 596.976562 404.613281 595.378906 C 450.863281 593.75 507.230469 597.695312 512.871094 625.363281 C 515.910156 640.339844 509.957031 687.6875 503.03125 739.011719 L 501.902344 747.410156 C 500.871094 755.210938 494.351562 763.199219 428.898438 767.746094 C 426.671875 767.902344 423.539062 767.996094 419.746094 767.996094 Z M 421.09375 608.191406 C 416.019531 608.191406 410.660156 608.285156 405.082031 608.476562 C 390.042969 609.007812 344.296875 610.574219 332.671875 623.296875 C 330.882812 625.269531 330.101562 627.371094 330.257812 629.875 C 335.554688 722.5625 343.230469 740.796875 347.335938 743.429688 C 369.457031 753.832031 413.417969 755.617188 428.019531 754.617188 C 476.335938 751.261719 486.957031 746.0625 489.058594 744.558594 L 490.058594 737.226562 C 494.539062 703.949219 502.90625 642.003906 500.023438 627.933594 C 497.925781 617.71875 472.667969 608.191406 421.09375 608.191406 Z M 404.863281 601.925781 Z M 404.863281 601.925781 " fill-opacity="1" fill-rule="nonzero"/><path fill="#0f172a" d="M 325.152344 660.300781 C 322.738281 660.300781 320.417969 658.984375 319.292969 656.667969 C 317.660156 653.4375 318.976562 649.492188 322.207031 647.863281 C 389.132812 614.273438 499.617188 635.796875 504.285156 636.707031 C 507.859375 637.425781 510.144531 640.875 509.425781 644.414062 C 508.703125 647.957031 505.257812 650.273438 501.714844 649.585938 C 500.621094 649.367188 390.984375 628.027344 328.097656 659.582031 C 327.125 660.082031 326.121094 660.300781 325.152344 660.300781 Z M 325.152344 660.300781 " fill-opacity="1" fill-rule="nonzero"/><path fill="#0f172a" d="M 355.386719 688.125 C 352.660156 688.125 350.125 686.402344 349.183594 683.707031 C 347.992188 680.292969 349.808594 676.53125 353.257812 675.371094 C 414.167969 654.347656 500.464844 669.011719 504.128906 669.636719 C 507.699219 670.265625 510.082031 673.648438 509.488281 677.222656 C 508.859375 680.792969 505.445312 683.207031 501.902344 682.578125 C 501.027344 682.421875 415.265625 667.882812 357.582031 687.78125 C 356.796875 688 356.078125 688.125 355.386719 688.125 Z M 355.386719 688.125 " fill-opacity="1" fill-rule="nonzero"/><path fill="#0f172a" d="M 500.273438 716.546875 C 499.648438 716.546875 498.988281 716.449219 498.332031 716.261719 C 497.613281 716.042969 454.371094 703.226562 397.875 713.128906 C 394.304688 713.757812 390.890625 711.375 390.261719 707.804688 C 389.636719 704.230469 392.015625 700.816406 395.589844 700.1875 C 455.5625 689.691406 500.304688 703.132812 502.1875 703.730469 C 505.664062 704.796875 507.605469 708.460938 506.542969 711.9375 C 505.664062 714.726562 503.0625 716.546875 500.273438 716.546875 Z M 500.273438 716.546875 " fill-opacity="1" fill-rule="nonzero"/><path fill="#0f172a" d="M 479.125 609.164062 C 468.816406 574.730469 484.011719 539.886719 498.550781 516.699219 C 505.851562 505.074219 514.1875 494.074219 522.238281 483.421875 C 532.328125 470.105469 542.730469 456.316406 550.816406 441.683594 C 569.429688 407.96875 576.351562 368.488281 570.273438 330.480469 C 565.136719 298.207031 550.503906 267.78125 529.101562 244.878906 C 494.445312 207.777344 439.613281 187.882812 382.367188 191.609375 C 355.355469 193.367188 316.472656 201.074219 284.699219 227.644531 C 253.929688 253.402344 234.878906 294.355469 233.75 337.25 C 232.683594 377.578125 246.722656 419.0625 273.292969 454.0625 C 281.0625 464.308594 289.960938 474.085938 298.578125 483.546875 C 309.328125 495.359375 320.449219 507.550781 329.789062 521.054688 C 350.5 550.945312 357.519531 583.03125 348.996094 609.101562 L 336.523438 605.027344 C 343.761719 582.90625 337.371094 555.019531 319.007812 528.542969 C 310.140625 515.757812 299.332031 503.882812 288.867188 492.414062 C 280.0625 482.734375 270.941406 472.738281 262.828125 462.019531 C 234.46875 424.671875 219.460938 380.238281 220.621094 336.9375 C 221.90625 290.3125 242.710938 245.722656 276.332031 217.585938 C 310.832031 188.726562 352.597656 180.425781 381.582031 178.511719 C 442.683594 174.535156 501.464844 195.964844 538.785156 235.917969 C 561.941406 260.734375 577.761719 293.570312 583.308594 328.414062 C 589.828125 369.304688 582.402344 411.792969 562.378906 448.046875 C 553.824219 463.523438 543.140625 477.65625 532.769531 491.347656 C 524.871094 501.785156 516.695312 512.5625 509.707031 523.6875 C 496.609375 544.554688 482.851562 575.667969 491.722656 605.40625 Z M 479.125 609.164062 " fill-opacity="1" fill-rule="nonzero"/><path fill="#0f172a" d="M 429.898438 606.65625 C 421.941406 577.171875 424.636719 524 439.015625 489.34375 C 431.621094 488.089844 424.886719 485.929688 419.964844 483.109375 C 419.183594 482.671875 418.429688 482.199219 417.710938 481.761719 C 408.089844 486.773438 396.96875 489.53125 385.4375 489.5625 C 385.3125 489.5625 385.21875 489.5625 385.09375 489.5625 C 396.464844 524.40625 398.660156 563.980469 391.359375 605.65625 L 378.417969 603.398438 C 385.71875 561.601562 383.023438 522.214844 370.679688 488.089844 C 357.832031 485.488281 346.175781 479.410156 337.464844 470.574219 C 334.457031 467.535156 330.539062 462.773438 330.820312 456.414062 C 331.042969 451.898438 333.484375 447.828125 337.589844 445.257812 C 342.414062 442.21875 348.871094 441.652344 354.007812 443.816406 C 361.246094 446.855469 369.894531 454.75 373.308594 461.394531 C 375.785156 466.21875 378.074219 471.171875 380.140625 476.214844 C 381.863281 476.371094 383.558594 476.402344 385.3125 476.433594 C 392.582031 476.402344 399.664062 475.085938 406.054688 472.613281 C 397.59375 464.089844 392.707031 453.875 392.425781 443.503906 C 392.171875 433.507812 397.59375 423.105469 406.273438 416.996094 C 413.605469 411.824219 422.128906 410.539062 429.679688 413.453125 C 440.425781 417.589844 447.476562 429.339844 446.820312 442.03125 C 446.160156 454.46875 439.015625 464.277344 433.125 470.292969 C 432.09375 471.359375 430.996094 472.390625 429.867188 473.394531 C 434.066406 475.085938 439.425781 476.308594 445.097656 476.96875 C 448.792969 470.730469 453.054688 465.625 457.847656 461.988281 C 466.9375 455.128906 477.152344 454.941406 483.199219 457.824219 C 487.585938 459.890625 490.28125 463.746094 490.4375 468.070312 C 490.6875 474.898438 487.238281 480.851562 480.753906 484.769531 C 473.734375 489 463.425781 490.753906 452.804688 490.628906 C 439.207031 520.363281 434.441406 573.382812 442.496094 603.242188 Z M 474.863281 469.164062 C 472.511719 469.164062 469.191406 469.886719 465.839844 472.425781 C 464.148438 473.707031 462.550781 475.273438 460.980469 477.15625 C 466.152344 476.621094 470.789062 475.464844 474.015625 473.488281 C 476.523438 471.984375 477.183594 470.542969 477.339844 469.511719 C 476.804688 469.320312 475.929688 469.164062 474.863281 469.164062 Z M 347.335938 455.628906 C 346.363281 455.628906 345.359375 455.878906 344.578125 456.351562 C 344.203125 456.601562 343.917969 456.882812 343.917969 457.007812 C 343.917969 457.320312 344.074219 458.574219 346.800781 461.332031 C 351.597656 466.1875 357.582031 470.011719 364.222656 472.582031 C 363.410156 470.824219 362.53125 469.101562 361.65625 467.378906 C 359.617188 463.429688 353.320312 457.757812 348.933594 455.910156 C 348.460938 455.722656 347.929688 455.628906 347.335938 455.628906 Z M 421.53125 425.046875 C 418.304688 425.046875 415.515625 426.582031 413.917969 427.742188 C 408.8125 431.34375 405.492188 437.550781 405.648438 443.191406 C 405.835938 451.210938 410.441406 459.328125 418.273438 465.96875 C 420.28125 464.496094 422.128906 462.867188 423.851562 461.113281 C 429.929688 454.878906 433.472656 447.828125 433.816406 441.308594 C 434.160156 434.449219 430.402344 427.742188 425.074219 425.675781 C 423.820312 425.234375 422.660156 425.046875 421.53125 425.046875 Z M 421.53125 425.046875 " fill-opacity="1" fill-rule="nonzero"/><g clip-path="url(#782bfda31f)"><path fill="#0f172a" d="M 662.867188 419.15625 C 666.90625 415.648438 672.390625 416.867188 676.996094 418.277344 C 698.992188 425.046875 721.019531 431.816406 743.015625 438.550781 C 747.027344 439.773438 751.445312 441.402344 753.011719 445.601562 C 753.703125 447.449219 753.734375 449.582031 753.609375 451.679688 C 752.980469 463.210938 744.929688 483.140625 722.839844 476.8125 C 713.375 474.117188 634.570312 443.660156 662.867188 419.15625 Z M 662.867188 419.15625 " fill-opacity="1" fill-rule="nonzero"/></g><path fill="#0f172a" d="M 504.285156 113.527344 C 501.464844 109.640625 502.9375 104.253906 504.535156 99.707031 C 512.152344 77.996094 519.765625 56.3125 527.347656 34.597656 C 528.726562 30.648438 530.480469 26.292969 534.335938 24.664062 C 536.027344 23.945312 537.9375 23.882812 539.753906 23.914062 C 549.9375 24.226562 576.164062 40.488281 565.261719 57.566406 C 559.996094 65.898438 523.964844 140.660156 504.285156 113.527344 Z M 504.285156 113.527344 " fill-opacity="1" fill-rule="nonzero"/><path fill="#0f172a" d="M 336.273438 71.539062 C 336.679688 76.804688 337.058594 82.191406 335.523438 87.238281 C 333.988281 92.28125 330.101562 96.953125 324.898438 97.859375 C 320.199219 98.675781 315.375 96.261719 312.117188 92.753906 C 308.855469 89.242188 306.882812 84.792969 304.941406 80.40625 C 299.019531 67.027344 293.128906 53.648438 287.207031 40.238281 C 282.851562 30.398438 278.714844 18.179688 285.230469 9.59375 C 288.425781 5.363281 293.628906 3.105469 298.800781 1.855469 C 305.691406 0.160156 313.242188 0.00390625 319.636719 3.042969 C 338.53125 12.035156 334.863281 54.179688 336.273438 71.539062 Z M 336.273438 71.539062 " fill-opacity="1" fill-rule="nonzero"/><path fill="#0f172a" d="M 676.558594 233.441406 C 671.484375 234.097656 666.28125 234.757812 661.078125 233.785156 C 655.878906 232.816406 650.707031 229.871094 648.984375 225.609375 C 647.417969 221.753906 649.015625 217.585938 651.929688 214.671875 C 654.84375 211.757812 658.886719 209.816406 662.835938 207.96875 C 674.960938 202.234375 687.085938 196.5 699.246094 190.765625 C 708.175781 186.535156 719.453125 182.367188 728.886719 187.253906 C 733.554688 189.667969 736.59375 193.835938 738.660156 198.035156 C 741.417969 203.675781 742.796875 209.910156 740.855469 215.425781 C 735.121094 231.65625 693.320312 231.214844 676.558594 233.441406 Z M 676.558594 233.441406 " fill-opacity="1" fill-rule="nonzero"/><path fill="#0f172a" d="M 192.203125 174.15625 C 188.128906 183.246094 173.839844 178.261719 164.597656 176.195312 C 144.792969 171.746094 125.148438 166.167969 105.8125 159.460938 C 101.050781 157.800781 95.472656 155.074219 94.660156 149.246094 C 94.1875 145.957031 95.441406 142.699219 96.789062 139.753906 C 106.753906 117.507812 114.023438 112.804688 134.421875 122.613281 C 152.375 131.324219 200.410156 155.890625 192.203125 174.15625 Z M 192.203125 174.15625 " fill-opacity="1" fill-rule="nonzero"/><path fill="#0f172a" d="M 128.875 315.441406 C 128.84375 324.589844 89.238281 331.515625 65.800781 332.675781 C 57.339844 333.113281 34.375 333.804688 27.730469 328.570312 C 21.054688 323.304688 14.257812 296.609375 23.4375 291.410156 C 40.203125 281.945312 128.9375 281.945312 128.875 315.441406 Z M 128.875 315.441406 " fill-opacity="1" fill-rule="nonzero"/><path fill="#0f172a" d="M 142.664062 511.121094 C 136.550781 516.792969 130.378906 522.558594 122.984375 526.378906 C 115.589844 530.234375 102.898438 534.183594 95.285156 525.472656 C 89.175781 518.484375 88.488281 506.859375 94.503906 501.0625 C 114.460938 481.792969 137.617188 470.074219 156.917969 466.941406 C 196.964844 460.484375 152.3125 502.160156 142.664062 511.121094 Z M 142.664062 511.121094 " fill-opacity="1" fill-rule="nonzero"/></svg>